<svg width="15" height="13" viewBox="0 0 15 13" fill="none" xmlns="http://www.w3.org/2000/svg">
<path d="M14.846 2.28231C14.2732 2.5287 13.7002 2.68258 13.1276 2.74439C13.7743 2.35635 14.2118 1.80817 14.4397 1.09986C13.8481 1.45087 13.2169 1.69102 12.5456 1.82043C11.9542 1.19218 11.2275 0.87793 10.365 0.87793C9.53975 0.87793 8.8361 1.16892 8.2538 1.75102C7.67183 2.33309 7.38081 3.03673 7.38081 3.86205C7.38081 4.08376 7.40541 4.31174 7.45473 4.54577C6.23512 4.48419 5.09105 4.17776 4.02231 3.6265C2.95364 3.07518 2.04667 2.34066 1.30141 1.42295C1.03039 1.88479 0.894828 2.38687 0.894828 2.92887C0.894828 3.44011 1.01492 3.91445 1.25526 4.35177C1.49544 4.78902 1.81888 5.14314 2.22543 5.41419C1.74491 5.39568 1.29529 5.26938 0.876512 5.03532V5.07227C0.876512 5.79297 1.10287 6.42572 1.55553 6.97099C2.00826 7.5162 2.57958 7.85939 3.26938 8.00113C3.01066 8.06879 2.74883 8.10267 2.48402 8.10267C2.31154 8.10267 2.12365 8.0873 1.92043 8.05672C2.11136 8.65406 2.46247 9.1451 2.97364 9.53026C3.4849 9.91522 4.06389 10.1137 4.71065 10.1263C3.62664 10.9761 2.3917 11.4011 1.00582 11.4011C0.740922 11.4011 0.500774 11.389 0.285156 11.3642C1.67106 12.2572 3.19857 12.7037 4.86779 12.7037C5.92721 12.7037 6.92197 12.5361 7.85176 12.2003C8.78199 11.8647 9.57648 11.415 10.2356 10.8513C10.8945 10.2878 11.4629 9.63947 11.9402 8.90654C12.4175 8.17354 12.773 7.40831 13.0073 6.61069C13.2413 5.81291 13.3584 5.0139 13.3584 4.21304C13.3584 4.04056 13.3552 3.91127 13.3491 3.825C13.9344 3.40021 14.4333 2.8858 14.846 2.28231Z" fill="#1B1C1E"/>
</svg>
