<svg width="15" height="14" viewBox="0 0 15 14" fill="none" xmlns="http://www.w3.org/2000/svg">
<path d="M14.638 5.61349C14.638 5.42115 14.4764 5.30162 14.153 5.25478L9.80603 4.6857L7.85765 1.13799C7.74804 0.924868 7.60648 0.818359 7.43332 0.818359C7.26019 0.818359 7.11873 0.924868 7.00902 1.13799L5.06055 4.6857L0.713388 5.25478C0.39018 5.30162 0.228516 5.42115 0.228516 5.61349C0.228516 5.72271 0.300704 5.84746 0.445049 5.9878L3.59717 8.74795L2.85245 12.6464C2.8409 12.7192 2.83517 12.7713 2.83517 12.8024C2.83517 12.9115 2.86544 13.0038 2.92604 13.0792C2.98661 13.1547 3.07748 13.1923 3.19877 13.1923C3.30275 13.1923 3.41816 13.1613 3.54516 13.0988L7.43323 11.2585L11.3216 13.0988C11.443 13.1613 11.5585 13.1923 11.6678 13.1923C11.7837 13.1923 11.8715 13.1547 11.9321 13.0792C11.9925 13.0039 12.0228 12.9115 12.0228 12.8024C12.0228 12.7349 12.0199 12.6829 12.0141 12.6464L11.2694 8.74795L14.4128 5.9878C14.5631 5.85265 14.638 5.72784 14.638 5.61349Z" fill="#C59C0C"/>
</svg>
